<?xml version="1.0" encoding="UTF-8" standalone="no"?>
<svg
   xmlns:dc="http://purl.org/dc/elements/1.1/"
   xmlns:cc="http://creativecommons.org/ns#"
   xmlns:rdf="http://www.w3.org/1999/02/22-rdf-syntax-ns#"
   xmlns:svg="http://www.w3.org/2000/svg"
   xmlns="http://www.w3.org/2000/svg"
   xmlns:sodipodi="http://sodipodi.sourceforge.net/DTD/sodipodi-0.dtd"
   xmlns:inkscape="http://www.inkscape.org/namespaces/inkscape"
   version="1.1"
   id="svg2"
   xml:space="preserve"
   width="793.70135"
   height="1122.52"
   viewBox="0 0 793.70135 1122.52"
   sodipodi:docname="Gabarit-Doc-INRAE_Version-Image-Unique-Centres_verso.svg"
   inkscape:version="1.0.1 (1.0.1+r73)"
   inkscape:export-filename="/home/davidcarayon/Documents/Templates/Gabarits_SVG/Gabarit-Doc-INRAE_Version-Image-Unique-Centres_verso.png"
   inkscape:export-xdpi="200"
   inkscape:export-ydpi="200"><metadata
     id="metadata8"><rdf:RDF><cc:Work
         rdf:about=""><dc:format>image/svg+xml</dc:format><dc:type
           rdf:resource="http://purl.org/dc/dcmitype/StillImage" /><dc:title /></cc:Work></rdf:RDF></metadata><defs
     id="defs6"><clipPath
       clipPathUnits="userSpaceOnUse"
       id="clipPath18"><path
         d="M 0,0 H 595.276 V 841.89 H 0 Z"
         id="path16" /></clipPath><clipPath
       clipPathUnits="userSpaceOnUse"
       id="clipPath72"><path
         d="M 0,0 H 595.276 V 841.89 H 0 Z"
         id="path70" /></clipPath><clipPath
       clipPathUnits="userSpaceOnUse"
       id="clipPath92"><path
         d="M 0,0 H 595.276 V 841.89 H 0 Z"
         id="path90" /></clipPath><clipPath
       clipPathUnits="userSpaceOnUse"
       id="clipPath124"><path
         d="M 0,0 H 595.276 V 841.89 H 0 Z"
         id="path122" /></clipPath><clipPath
       clipPathUnits="userSpaceOnUse"
       id="clipPath150"><path
         d="M 0,0 H 595.276 V 841.89 H 0 Z"
         id="path148" /></clipPath><clipPath
       clipPathUnits="userSpaceOnUse"
       id="clipPath174"><path
         d="M 0,0 H 595.276 V 841.89 H 0 Z"
         id="path172" /></clipPath><clipPath
       clipPathUnits="userSpaceOnUse"
       id="clipPath194"><path
         d="M 0,0 H 595.276 V 841.89 H 0 Z"
         id="path192" /></clipPath><clipPath
       clipPathUnits="userSpaceOnUse"
       id="clipPath212"><path
         d="M 0,0 H 595.276 V 841.89 H 0 Z"
         id="path210" /></clipPath><clipPath
       clipPathUnits="userSpaceOnUse"
       id="clipPath228"><path
         d="M 0,0 H 595.276 V 841.89 H 0 Z"
         id="path226" /></clipPath></defs><sodipodi:namedview
     pagecolor="#ffffff"
     bordercolor="#666666"
     borderopacity="1"
     objecttolerance="10"
     gridtolerance="10"
     guidetolerance="10"
     inkscape:pageopacity="0"
     inkscape:pageshadow="2"
     inkscape:window-width="1848"
     inkscape:window-height="1016"
     id="namedview4"
     showgrid="false"
     inkscape:zoom="0.77504186"
     inkscape:cx="355.39977"
     inkscape:cy="624.7187"
     inkscape:window-x="1992"
     inkscape:window-y="27"
     inkscape:window-maximized="1"
     inkscape:current-layer="g10"
     inkscape:document-rotation="0" /><g
     id="g10"
     inkscape:groupmode="layer"
     inkscape:label="Gabarit-Doc-INRAE_Version-Image-Unique-Centres"
     transform="matrix(1.3333333,0,0,-1.3333333,0,1122.52)"><g
       id="g12"><g
         id="g14"
         clip-path="url(#clipPath18)"><g
           id="g20"
           transform="translate(299.0493,336.9137)"><path
             d="m 0,0 h -7.269 c -2.189,0 -3.97,1.781 -3.97,3.97 v 7.27 c 0,2.189 1.781,3.97 3.97,3.97 H 0 c 2.189,0 3.97,-1.781 3.97,-3.97 V 3.97 C 3.97,1.781 2.189,0 0,0 m -7.269,13.909 c -1.472,0 -2.67,-1.198 -2.67,-2.669 V 3.97 c 0,-1.472 1.198,-2.669 2.67,-2.669 H 0 c 1.472,0 2.67,1.197 2.67,2.669 v 7.27 c 0,1.471 -1.198,2.669 -2.67,2.669 z"
             style="fill:#1ab2ad;fill-opacity:1;fill-rule:nonzero;stroke:none"
             id="path22" /></g><g
           id="g24"
           transform="translate(300.3298,348.6019)"><path
             d="m 0,0 c 0,-0.496 -0.402,-0.898 -0.898,-0.898 -0.497,0 -0.899,0.402 -0.899,0.898 0,0.496 0.402,0.898 0.899,0.898 C -0.402,0.898 0,0.496 0,0"
             style="fill:#1ab2ad;fill-opacity:1;fill-rule:nonzero;stroke:none"
             id="path26" /></g><g
           id="g28"
           transform="translate(339.2919,352.1235)"><path
             d="m 0,0 h -7.268 c -2.19,0 -3.97,-1.782 -3.97,-3.971 v -7.268 c 0,-2.189 1.78,-3.971 3.97,-3.971 H 0 c 2.189,0 3.97,1.782 3.97,3.971 v 7.268 C 3.97,-1.782 2.189,0 0,0 m -6.466,-12.613 h -2.001 v 6.603 h 2.001 z m -1.001,7.685 c -0.644,0 -1.165,0.522 -1.165,1.166 0,0.644 0.521,1.166 1.165,1.166 0.644,0 1.166,-0.522 1.166,-1.166 0,-0.644 -0.522,-1.166 -1.166,-1.166 m 8.831,-7.685 h -2.001 v 3.431 c 0,1.007 -0.403,1.718 -1.053,1.718 -1.128,0 -1.452,-0.719 -1.452,-2.214 v -2.935 h -2.001 v 4.554 c 0,0.695 0,1.537 -0.016,2.146 h 1.939 c 0.043,-0.219 0.07,-0.711 0.078,-0.967 0.29,0.566 0.916,1.162 2.384,1.162 1.601,0 2.122,-1.156 2.122,-3.234 z"
             style="fill:#1ab2ad;fill-opacity:1;fill-rule:nonzero;stroke:none"
             id="path30" /></g><g
           id="g32"
           transform="translate(319.0855,349.2684)"><path
             d="m 0,0 h -7.318 c -1.64,0 -2.969,-1.329 -2.969,-2.968 v -3.563 c 0,-1.639 1.329,-2.969 2.969,-2.969 H 0 c 1.639,0 2.968,1.33 2.968,2.969 v 3.563 C 2.968,-1.329 1.639,0 0,0 m -3.255,-5.838 -1.796,-1.088 v 2.176 2.176 l 1.796,-1.088 1.797,-1.088 z"
             style="fill:#1ab2ad;fill-opacity:1;fill-rule:nonzero;stroke:none"
             id="path34" /></g><g
           id="g36"
           transform="translate(295.4148,340.6111)"><path
             d="m 0,0 c -2.155,0 -3.908,1.753 -3.908,3.908 0,2.154 1.753,3.907 3.908,3.907 2.155,0 3.908,-1.753 3.908,-3.907 C 3.908,1.753 2.155,0 0,0 m 0,6.514 c -1.437,0 -2.607,-1.169 -2.607,-2.606 0,-1.438 1.17,-2.607 2.607,-2.607 1.437,0 2.607,1.169 2.607,2.607 0,1.437 -1.17,2.606 -2.607,2.606"
             style="fill:#1ab2ad;fill-opacity:1;fill-rule:nonzero;stroke:none"
             id="path38" /></g><g
           id="g40"
           transform="translate(281.4381,348.7948)"><path
             d="m 0,0 c -0.301,-0.421 -0.632,-0.799 -1.015,-1.148 -0.411,-0.374 -0.338,-0.629 -0.378,-1.139 -0.061,-0.769 -0.219,-1.51 -0.471,-2.238 -0.493,-1.431 -1.384,-2.702 -2.532,-3.681 -2.755,-2.348 -7.003,-2.448 -10.024,-0.576 2.225,-0.095 3.223,0.363 4.381,1.219 -1.164,0.168 -2.208,0.479 -2.779,2.076 0.558,-0.153 0.957,-0.079 1.3,0.017 -1.074,0.34 -2.335,0.86 -2.335,2.925 0.456,-0.273 1.07,-0.391 1.337,-0.353 -1.446,1.005 -1.564,2.684 -0.906,3.936 0.931,-1.387 4.367,-3.335 5.932,-2.992 -0.174,1.405 0.582,2.826 1.973,3.301 0.786,0.267 1.565,0.248 2.337,-0.054 0.302,-0.12 0.606,-0.315 0.837,-0.544 0.04,-0.039 0.067,-0.068 0.12,-0.079 0.034,-0.007 0.068,-0.004 0.102,0.005 0.541,0.153 1.388,0.525 1.624,0.659 0.093,0.053 -0.479,-1.307 -1.26,-1.638 0.35,0.079 1.178,0.33 1.518,0.473 0.067,0.028 0.144,0.046 0.198,0.026 C 0.037,0.171 0.071,0.095 0,0"
             style="fill:#1ab2ad;fill-opacity:1;fill-rule:nonzero;stroke:none"
             id="path42" /></g><g
           id="g44"
           transform="translate(255.9638,352.1235)"><path
             d="m 0,0 h -7.268 c -2.189,0 -3.97,-1.782 -3.97,-3.971 v -7.268 c 0,-2.189 1.781,-3.971 3.97,-3.971 h 2.255 v 5.363 h -1.975 v 2.295 h 1.975 v 2.01 c 0,1.541 1.249,2.79 2.79,2.79 h 1.942 V -4.95 H -1.64 c -0.532,0 -0.963,-0.431 -0.963,-0.962 v -1.622 h 2.149 L -0.798,-9.812 H -2.603 V -15.21 H 0 c 2.189,0 3.97,1.782 3.97,3.971 v 7.268 C 3.97,-1.782 2.189,0 0,0"
             style="fill:#1ab2ad;fill-opacity:1;fill-rule:nonzero;stroke:none"
             id="path46" /></g></g></g><text
       transform="matrix(1,0,0,-1,260.7127,356.5252)"
       style="font-variant:normal;font-weight:600;font-stretch:normal;font-size:7px;font-family:'Raleway SemiBold';-inkscape-font-specification:Raleway-SemiBold;writing-mode:lr-tb;fill:#1ab2ad;fill-opacity:1;fill-rule:nonzero;stroke:none"
       id="text50"><tspan
         x="0 4.5219998 8.6870003 10.423 14.637 16.330999 20.733999 24.913 29.014299 32.283298 35.230301 39.409302 43.623299 47.886299 51.358299 53.087299 56.559299 60.8223 63.272301 65.001297"
         y="0"
         sodipodi:role="line"
         id="tspan48">Rejoignez-nous sur :</tspan></text><text
       transform="matrix(1,0,0,-1,216.6897,326.7752)"
       style="font-variant:normal;font-weight:800;font-stretch:normal;font-size:7px;font-family:'Raleway ExtraBold';-inkscape-font-specification:Raleway-ExtraBold;writing-mode:lr-tb;fill:#1ab2ad;fill-opacity:1;fill-rule:nonzero;stroke:none"
       id="text56"><tspan
         x="0 3.493 5.3829999 8.1059999 12.334 13.965 15.855 20.104 22.827 27.055 29.855 34.139 38.338299 41.152302 42.783298 47.067299 51.1413 53.955299 55.845299 60.115299 64.3993 68.501297 70.629303 72.2603 76.530296 80.919296 82.550301 86.043297 87.933296 90.655602 94.883598 96.514603 98.404602 102.6536 105.3766 109.6046 112.4046 116.6886 120.8886 123.7026 125.3336 129.91161 134.3006 135.93159 139.88589 144.11391 148.3629 151.1769 153.79491"
         y="0"
         sodipodi:role="line"
         id="tspan52">site internet national ou site internet du centre</tspan><tspan
         x="35.777 40.592999 44.820999 49.07 51.883999 54.501999 58.73"
         y="-87.584"
         sodipodi:role="line"
         id="tspan54">Centre Nouvelle-Aquitaine</tspan></text><text
       transform="scale(1,-1)"
       style="font-variant:normal;font-weight:600;font-stretch:normal;font-size:7px;font-family:'Raleway SemiBold';-inkscape-font-specification:Raleway-SemiBold;text-align:center;writing-mode:lr-tb;text-anchor:middle;fill:#1ab2ad;fill-opacity:1;fill-rule:nonzero;stroke:none"
       id="text64"
       x="295.48065"
       y="-404.3562"><tspan
         sodipodi:role="line"
         id="tspan58"
         x="295.48065"
         y="-404.3562">Site Cestas-Gazinet</tspan><tspan
         sodipodi:role="line"
         x="295.48065"
         y="-395.31979"
         id="tspan1077">50 avenue de Verdun</tspan><tspan
         sodipodi:role="line"
         id="tspan60"
         x="295.48065"
         y="-386.28339">33612 CESTAS Cedex</tspan><tspan
         sodipodi:role="line"
         id="tspan62"
         x="295.48065"
         y="-377.53339" /></text><g
       id="g66"><g
         id="g68"
         clip-path="url(#clipPath72)"><g
           id="g74"
           transform="translate(300.8912,451.547)"><path
             d="m 0,0 -5.774,5.774 c -0.977,0.977 -2.559,0.977 -3.536,0 -0.976,-0.976 -0.976,-2.558 0,-3.535 L -3.535,-3.535 -9.31,-9.31 c -0.976,-0.976 -0.976,-2.558 0,-3.535 0.489,-0.488 1.128,-0.732 1.768,-0.732 0.64,0 1.279,0.244 1.768,0.732 L 0,-7.07 3.535,-3.535 Z"
             style="fill:#1ab2ad;fill-opacity:1;fill-rule:nonzero;stroke:none"
             id="path76" /></g></g></g><text
       transform="matrix(1,0,0,-1,189.746,222.4721)"
       style="font-variant:normal;font-weight:bold;font-stretch:normal;font-size:13px;font-family:Raleway;-inkscape-font-specification:Raleway-Bold;writing-mode:lr-tb;fill:#1ab2ad;fill-opacity:1;fill-rule:nonzero;stroke:none"
       id="text80"><tspan
         x="0 3.7179999 11.57 18.031 23.023001 26.337999 31.33 39.363998 44.355999 47.476002 55.327999 62.736698 67.728699 71.043701 78.9217 86.773697 94.235703 97.9524 101.0724 109.4574 117.2444 120.3644 125.0574 132.84441 140.17641 148.0284 155.8154 160.50841 167.84039 175.6924 183.4794 186.5994 194.8414 202.71941 210.7534"
         y="0"
         sodipodi:role="line"
         id="tspan78">Institut national de recherche pour</tspan></text><text
       transform="matrix(1,0,0,-1,150.174,205.4681)"
       style="font-variant:normal;font-weight:800;font-stretch:normal;font-size:13px;font-family:'Raleway ExtraBold';-inkscape-font-specification:Raleway-ExtraBold;writing-mode:lr-tb;fill:#1ab2ad;fill-opacity:1;fill-rule:nonzero;stroke:none"
       id="text84"><tspan
         x="0 4.2119999 7.3969998 15.015 23.334999 28.535 32.044998 39.455002 47.605999 51.960999 57.187 65.337997 70.199997 78.052002 81.210999 84.239998 88.450699 91.637001 99.254997 103.61 107.12 119.275 127.127 135.01669 140.24271 147.8087 153.0347 156.54469 164.4747 172.43069 175.4597 183.2597 188.4857 191.51469 195.7267 198.84669 206.6987 214.4987 221.7267 225.23669 230.09869 238.0287 245.9847 253.9407 261.79269 273.94769 281.79971 289.6907"
         y="0"
         sodipodi:role="line"
         id="tspan82">l’agriculture, l’alimentation et l’environnement</tspan></text><g
       id="g86"><g
         id="g88"
         clip-path="url(#clipPath92)"><g
           id="g94"
           transform="translate(309.7747,126.3171)"><path
             d="m 0,0 h -3.842 c -0.153,0 -0.277,-0.124 -0.277,-0.278 v -22.227 c 0,-0.153 0.124,-0.278 0.277,-0.278 H 0 c 0.153,0 0.278,0.125 0.278,0.278 V -0.278 C 0.278,-0.124 0.153,0 0,0"
             style="fill:#1ab2ad;fill-opacity:1;fill-rule:nonzero;stroke:none"
             id="path96" /></g><g
           id="g98"
           transform="translate(331.423,126.3171)"><path
             d="M 0,0 H -3.827 C -3.98,0 -4.104,-0.124 -4.104,-0.278 V -15.143 L -13.516,-0.13 C -13.567,-0.049 -13.656,0 -13.751,0 h -3.857 c -0.154,0 -0.278,-0.124 -0.278,-0.278 v -22.227 c 0,-0.153 0.124,-0.278 0.278,-0.278 h 3.857 c 0.153,0 0.277,0.125 0.277,0.278 V -7.7 l 9.382,-14.953 c 0.051,-0.081 0.139,-0.13 0.235,-0.13 H 0 c 0.153,0 0.278,0.125 0.278,0.278 V -0.278 C 0.278,-0.124 0.153,0 0,0"
             style="fill:#1ab2ad;fill-opacity:1;fill-rule:nonzero;stroke:none"
             id="path100" /></g><g
           id="g102"
           transform="translate(347.5677,113.1334)"><path
             d="m 0,0 c 1.191,0.551 2.144,1.319 2.834,2.286 0.748,1.047 1.126,2.358 1.126,3.897 0,2.257 -0.736,4.01 -2.189,5.21 -1.437,1.188 -3.492,1.791 -6.107,1.791 h -7.805 c -0.154,0 -0.278,-0.125 -0.278,-0.278 V -9.321 c 0,-0.153 0.124,-0.278 0.278,-0.278 h 3.857 c 0.153,0 0.277,0.125 0.277,0.278 v 8.271 h 3.854 l 4.374,-8.399 c 0.048,-0.092 0.142,-0.15 0.245,-0.15 h 4.132 c 0.154,0 0.278,0.125 0.278,0.278 v 0.198 c 0,0.046 -0.012,0.092 -0.034,0.132 z M -1.457,3.534 C -2.133,2.927 -3.096,2.62 -4.321,2.62 h -3.686 v 6.894 h 3.789 C -2.955,9.494 -2,9.181 -1.38,8.584 -0.764,7.99 -0.451,7.128 -0.451,6.021 c 0,-1.067 -0.329,-1.88 -1.006,-2.487"
             style="fill:#1ab2ad;fill-opacity:1;fill-rule:nonzero;stroke:none"
             id="path104" /></g><g
           id="g106"
           transform="translate(366.2459,111.286)"><path
             d="m 0,0 0.029,-0.085 h -6.47 l 0.512,1.47 2.719,7.808 z m 17.122,11.363 c 0.97,-10e-4 1.916,-0.18 2.816,-0.536 C 17.673,6.647 14.046,3.362 9.674,1.531 9.483,2.211 9.386,2.911 9.386,3.618 c 0,4.268 3.47,7.74 7.736,7.745 M 28.767,3.618 c 0,1.562 -0.333,3.099 -0.94,4.529 -0.111,0.164 -0.222,0.068 -0.261,0.023 L 25.251,4.537 C 25.044,4.175 24.893,3.923 24.853,3.018 24.85,2.955 24.847,2.904 24.838,2.859 c -0.383,-3.916 -3.692,-6.986 -7.707,-6.986 -0.751,0 -1.498,0.109 -2.219,0.325 -1.226,0.368 -2.354,1.043 -3.261,1.953 -0.033,0.032 -0.065,0.065 -0.096,0.098 4.936,2.179 9.069,5.974 11.665,10.722 0.568,1.038 1.064,2.127 1.475,3.237 0.041,0.11 0.008,0.233 -0.082,0.309 -0.864,0.728 -1.823,1.324 -2.851,1.772 -1.467,0.64 -3.025,0.965 -4.631,0.965 -0.002,0 -0.004,0 -0.006,0 -0.002,0 -0.004,0 -0.007,0 -3.98,0 -7.497,-2.017 -9.592,-5.081 C 6.247,8.305 5.495,6.048 5.495,3.618 5.495,2.517 5.651,1.428 5.958,0.375 5.43,0.264 4.894,0.173 4.361,0.104 l -5.574,14.748 c -0.04,0.108 -0.144,0.179 -0.259,0.179 h -3.461 c -0.115,0 -0.219,-0.071 -0.26,-0.18 l -8.384,-22.226 c -0.033,-0.086 -0.021,-0.181 0.031,-0.257 0.052,-0.075 0.137,-0.12 0.228,-0.12 h 4.01 c 0.117,0 0.223,0.075 0.262,0.187 L -7.7,-3.7 H 1.292 L 1.334,-3.82 2.641,-7.565 C 2.68,-7.677 2.785,-7.752 2.903,-7.752 h 4.025 c 0.091,0 0.177,0.045 0.228,0.12 0.052,0.076 0.064,0.171 0.031,0.257 L 5.72,-3.493 c 0.626,0.104 1.25,0.234 1.863,0.386 0.018,0.005 0.036,0.008 0.053,0.012 0.017,-0.024 0.034,-0.049 0.051,-0.072 0.763,-1.06 1.691,-1.979 2.758,-2.732 1.965,-1.386 4.273,-2.119 6.673,-2.119 v 0.001 c 0.005,0 0.009,-0.001 0.013,-0.001 6.416,0 11.636,5.22 11.636,11.636"
             style="fill:#1ab2ad;fill-opacity:1;fill-rule:nonzero;stroke:none"
             id="path108" /></g><g
           id="g110"
           transform="translate(201.4343,126.1668)"><path
             d="m 0,0 h 2.868 c 2.063,0 3.337,-1.059 3.337,-2.801 0,-1.125 -0.55,-1.97 -1.501,-2.425 L 7.652,-9.381 H 5.374 L 2.881,-5.588 H 1.903 V -9.381 H 0 Z m 1.903,-1.622 v -2.345 h 1.072 c 0.804,0 1.273,0.429 1.273,1.193 0,0.71 -0.469,1.152 -1.273,1.152 z"
             style="fill:#231f20;fill-opacity:1;fill-rule:nonzero;stroke:none"
             id="path112" /></g></g></g><g
       id="g114"
       transform="translate(210.2656,126.1668)"><path
         d="M 0,0 H 5.467 V -1.622 H 1.903 v -2.17 H 4.931 V -5.414 H 1.903 V -7.759 H 5.467 V -9.381 H 0 Z M 1.849,0.804 3.364,2.613 H 5.32 L 3.578,0.804 Z"
         style="fill:#231f20;fill-opacity:1;fill-rule:nonzero;stroke:none"
         id="path116" /></g><g
       id="g118"><g
         id="g120"
         clip-path="url(#clipPath124)"><g
           id="g126"
           transform="translate(217.9443,126.1668)"><path
             d="m 0,0 h 3.096 c 2.063,0 3.323,-1.059 3.323,-2.801 0,-1.728 -1.26,-2.787 -3.323,-2.787 H 1.903 V -9.381 H 0 Z m 1.903,-1.622 v -2.345 h 1.273 c 0.804,0 1.287,0.429 1.287,1.193 0,0.71 -0.483,1.152 -1.287,1.152 z"
             style="fill:#231f20;fill-opacity:1;fill-rule:nonzero;stroke:none"
             id="path128" /></g><g
           id="g130"
           transform="translate(231.4659,126.1668)"><path
             d="m 0,0 h 1.903 v -5.709 c 0,-2.465 -1.447,-3.94 -3.806,-3.94 -2.345,0 -3.792,1.475 -3.792,3.94 V 0 h 1.903 v -5.869 c 0,-1.26 0.71,-1.997 1.903,-1.997 1.165,0 1.889,0.737 1.889,1.997 z"
             style="fill:#231f20;fill-opacity:1;fill-rule:nonzero;stroke:none"
             id="path132" /></g><g
           id="g134"
           transform="translate(235.7274,126.1668)"><path
             d="m 0,0 h 2.667 c 1.956,0 3.136,-0.965 3.136,-2.546 0,-0.751 -0.349,-1.407 -0.992,-1.849 0.992,-0.443 1.541,-1.247 1.541,-2.225 0,-1.715 -1.327,-2.761 -3.484,-2.761 H 0 Z m 1.903,-1.622 v -2.05 h 0.804 c 0.724,0 1.139,0.362 1.139,1.032 0,0.63 -0.415,1.018 -1.139,1.018 z m 0,-3.685 v -2.452 h 1.072 c 0.884,0 1.421,0.469 1.421,1.246 0,0.777 -0.537,1.206 -1.421,1.206 z"
             style="fill:#231f20;fill-opacity:1;fill-rule:nonzero;stroke:none"
             id="path136" /></g></g></g><g
       id="g138"
       transform="translate(244.023,126.1668)"><path
         d="M 0,0 H 1.903 V -7.652 H 5.467 V -9.381 H 0 Z"
         style="fill:#231f20;fill-opacity:1;fill-rule:nonzero;stroke:none"
         id="path140" /></g><path
       d="m 251.166,126.167 h 1.903 v -9.38 h -1.903 z"
       style="fill:#231f20;fill-opacity:1;fill-rule:nonzero;stroke:none"
       id="path142" /><g
       id="g144"><g
         id="g146"
         clip-path="url(#clipPath150)"><g
           id="g152"
           transform="translate(265.5314,116.1297)"><path
             d="m 0,0 c 0.201,0 0.469,0.027 0.67,0.107 v -1.608 c -0.308,-0.121 -0.576,-0.174 -0.992,-0.174 -1.045,0 -2.01,0.429 -2.934,1.233 L -4.369,0.549 C -4.771,0.442 -5.2,0.389 -5.655,0.389 c -2.962,0 -4.985,2.278 -4.985,4.958 0,2.68 2.023,4.958 4.985,4.958 2.948,0 4.972,-2.278 4.972,-4.958 0,-1.568 -0.697,-3.002 -1.85,-3.913 L -1.97,0.898 C -1.246,0.241 -0.603,0 0,0 m -2.64,5.347 c 0,1.796 -1.26,3.176 -3.015,3.176 -1.769,0 -3.029,-1.38 -3.029,-3.176 0,-1.796 1.26,-3.176 3.029,-3.176 1.755,0 3.015,1.38 3.015,3.176"
             style="fill:#231f20;fill-opacity:1;fill-rule:nonzero;stroke:none"
             id="path154" /></g><g
           id="g156"
           transform="translate(272.2053,126.1668)"><path
             d="m 0,0 h 1.903 v -5.709 c 0,-2.465 -1.447,-3.94 -3.806,-3.94 -2.345,0 -3.792,1.475 -3.792,3.94 V 0 h 1.903 v -5.869 c 0,-1.26 0.71,-1.997 1.903,-1.997 1.165,0 1.889,0.737 1.889,1.997 z"
             style="fill:#231f20;fill-opacity:1;fill-rule:nonzero;stroke:none"
             id="path158" /></g></g></g><g
       id="g160"
       transform="translate(276.4668,126.1668)"><path
         d="M 0,0 H 5.468 V -1.622 H 1.903 v -2.17 H 4.931 V -5.414 H 1.903 V -7.759 H 5.468 V -9.381 H 0 Z"
         style="fill:#231f20;fill-opacity:1;fill-rule:nonzero;stroke:none"
         id="path162" /></g><g
       id="g164"
       transform="translate(201.4343,112.6405)"><path
         d="M 0,0 H 5.467 V -1.622 H 1.903 v -2.17 H 4.931 V -5.414 H 1.903 V -9.38 L 0,-9.38 Z"
         style="fill:#231f20;fill-opacity:1;fill-rule:nonzero;stroke:none"
         id="path166" /></g><g
       id="g168"><g
         id="g170"
         clip-path="url(#clipPath174)"><g
           id="g176"
           transform="translate(208.5771,112.6405)"><path
             d="m 0,0 h 2.868 c 2.063,0 3.337,-1.059 3.337,-2.801 0,-1.125 -0.55,-1.97 -1.501,-2.425 L 7.652,-9.38 H 5.374 L 2.881,-5.588 H 1.903 V -9.38 L 0,-9.38 Z m 1.903,-1.622 v -2.345 h 1.072 c 0.804,0 1.273,0.429 1.273,1.193 0,0.71 -0.469,1.152 -1.273,1.152 z"
             style="fill:#231f20;fill-opacity:1;fill-rule:nonzero;stroke:none"
             id="path178" /></g></g></g><g
       id="g180"
       transform="translate(220.1824,112.6405)"><path
         d="M 0,0 H 2.492 L 6.044,-9.38 H 4.02 L 3.122,-6.942 H -0.63 L -1.528,-9.38 H -3.551 Z M 2.533,-5.32 1.246,-1.796 -0.04,-5.32 Z"
         style="fill:#231f20;fill-opacity:1;fill-rule:nonzero;stroke:none"
         id="path182" /></g><g
       id="g184"
       transform="translate(227.6734,112.6405)"><path
         d="M 0,0 H 2.439 L 6.633,-6.714 V 0 H 8.536 V -9.38 H 6.097 L 1.903,-2.64 V -9.38 H 0 Z"
         style="fill:#231f20;fill-opacity:1;fill-rule:nonzero;stroke:none"
         id="path186" /></g><g
       id="g188"><g
         id="g190"
         clip-path="url(#clipPath194)"><g
           id="g196"
           transform="translate(245.4699,106.0607)"><path
             d="M 0,0 1.501,-1.152 C 0.777,-2.144 -0.348,-2.841 -1.715,-3.015 L -2.881,-4.958 H -4.57 l 1.18,1.97 c -2.439,0.429 -4.047,2.492 -4.047,4.878 0,2.68 2.023,4.958 4.985,4.958 1.702,0 3.095,-0.764 3.953,-1.903 L 0,3.779 c -0.536,0.764 -1.38,1.287 -2.452,1.287 -1.769,0 -3.029,-1.381 -3.029,-3.176 0,-1.796 1.26,-3.176 3.029,-3.176 1.072,0 1.916,0.522 2.452,1.286"
             style="fill:#231f20;fill-opacity:1;fill-rule:nonzero;stroke:none"
             id="path198" /></g></g></g><g
       id="g200"
       transform="translate(250.9246,112.6405)"><path
         d="M 0,0 H 2.492 L 6.044,-9.38 H 4.02 L 3.122,-6.942 H -0.63 L -1.528,-9.38 H -3.551 Z M 2.533,-5.32 1.246,-1.796 -0.04,-5.32 Z"
         style="fill:#231f20;fill-opacity:1;fill-rule:nonzero;stroke:none"
         id="path202" /></g><path
       d="m 258.416,112.641 h 1.903 v -9.38 h -1.903 z"
       style="fill:#231f20;fill-opacity:1;fill-rule:nonzero;stroke:none"
       id="path204" /><g
       id="g206"><g
         id="g208"
         clip-path="url(#clipPath212)"><g
           id="g214"
           transform="translate(263.4813,105.833)"><path
             d="m 0,0 c 0.563,-0.724 1.313,-1.153 2.077,-1.153 0.751,0 1.206,0.403 1.206,1.086 0,1.675 -4.288,1.3 -4.288,4.422 0,1.488 1.219,2.721 3.002,2.721 1.407,0 2.492,-0.63 3.283,-1.582 L 3.886,4.248 C 3.337,4.958 2.72,5.414 2.01,5.414 1.353,5.414 0.925,4.985 0.925,4.436 0.925,2.76 5.213,3.149 5.213,-0.027 5.186,-1.769 3.819,-2.841 2.104,-2.841 c -1.581,0 -2.653,0.576 -3.484,1.568 z"
             style="fill:#231f20;fill-opacity:1;fill-rule:nonzero;stroke:none"
             id="path216" /></g></g></g><g
       id="g218"
       transform="translate(270.6912,112.6405)"><path
         d="M 0,0 H 5.467 V -1.622 H 1.903 v -2.17 H 4.931 V -5.414 H 1.903 V -7.759 H 5.467 V -9.38 H 0 Z"
         style="fill:#231f20;fill-opacity:1;fill-rule:nonzero;stroke:none"
         id="path220" /></g><g
       id="g222"><g
         id="g224"
         clip-path="url(#clipPath228)"><g
           id="g230"
           transform="translate(231.9582,77.3581)"><path
             d="M 0,0 C 0.254,0 0.475,-0.193 0.358,-0.681 L -0.825,-0.956 C -0.619,-0.406 -0.275,0 0,0 M 0.653,-1.905 H 0.42 c -0.296,-0.351 -0.613,-0.626 -0.929,-0.626 -0.323,0 -0.488,0.193 -0.488,0.626 0,0.179 0.02,0.358 0.055,0.523 l 1.905,0.625 c 0.371,0.881 -0.076,1.266 -0.598,1.266 -0.901,0 -1.926,-1.506 -1.926,-2.827 0,-0.591 0.282,-0.915 0.722,-0.915 0.516,0 1.052,0.503 1.492,1.328 M 0.275,0.86 1.616,2.111 V 2.256 H 0.894 L 0.069,0.86 Z m -4.113,-0.881 h 0.633 l -1.004,-2.744 c -0.09,-0.234 0.034,-0.468 0.275,-0.468 0.571,0 1.492,0.564 1.816,1.335 H -2.297 C -2.552,-2.166 -3.04,-2.524 -3.459,-2.6 l 0.921,2.579 h 0.942 l 0.117,0.392 h -0.914 l 0.35,0.991 H -2.407 L -3.061,0.371 -3.838,0.261 Z M -4.69,0.11 c 0.075,0.255 -0.097,0.399 -0.227,0.399 -0.551,0 -1.204,-0.495 -1.465,-1.19 h 0.178 c 0.179,0.255 0.482,0.537 0.764,0.585 l -1.052,-2.738 c -0.097,-0.254 0.096,-0.399 0.227,-0.399 0.522,0 1.134,0.503 1.396,1.19 H -5.048 C -5.227,-2.297 -5.53,-2.579 -5.812,-2.627 Z m 0.192,1.376 c 0.248,0 0.454,0.199 0.454,0.454 0,0.247 -0.206,0.453 -0.454,0.453 -0.254,0 -0.454,-0.206 -0.454,-0.453 0,-0.255 0.2,-0.454 0.454,-0.454 m -6.059,-4.21 c -0.138,-0.309 0.007,-0.509 0.309,-0.509 0.186,0 0.269,0.049 0.344,0.248 l 0.729,1.933 c 0.337,0.412 1.032,0.853 1.307,0.853 0.2,0 0.172,-0.166 0.041,-0.413 l -1.121,-2.153 c -0.11,-0.213 0.035,-0.468 0.275,-0.468 0.551,0 1.204,0.496 1.465,1.19 H -7.386 C -7.565,-2.297 -7.868,-2.579 -8.15,-2.627 l 0.963,1.946 c 0.124,0.248 0.186,0.482 0.186,0.667 0,0.317 -0.179,0.523 -0.509,0.523 -0.475,0 -0.956,-0.536 -1.527,-1.197 v 0.509 c 0,0.365 -0.117,0.688 -0.447,0.688 -0.206,0 -0.406,-0.179 -0.592,-0.433 V 0.007 c 0.358,0.021 0.516,-0.516 0.262,-1.08 z m -0.014,2.394 c 0.131,0.447 0.062,0.839 -0.282,0.839 -0.406,0 -0.509,-0.31 -0.921,-1.197 v 0.509 c 0,0.365 -0.117,0.688 -0.447,0.688 -0.386,0 -0.736,-0.598 -1.005,-1.19 h 0.179 c 0.186,0.268 0.358,0.427 0.495,0.427 0.166,0 0.255,-0.255 0,-0.819 l -0.742,-1.651 c -0.138,-0.309 0.007,-0.509 0.309,-0.509 0.186,0 0.268,0.049 0.344,0.248 l 0.729,1.933 c 0.206,0.254 0.392,0.474 0.626,0.722 z M -14.794,0 c 0.255,0 0.475,-0.193 0.358,-0.681 l -1.183,-0.275 c 0.206,0.55 0.55,0.956 0.825,0.956 m 0.654,-1.905 h -0.234 c -0.296,-0.351 -0.612,-0.626 -0.929,-0.626 -0.323,0 -0.488,0.193 -0.488,0.626 0,0.179 0.021,0.358 0.055,0.523 l 1.905,0.625 c 0.372,0.881 -0.075,1.266 -0.598,1.266 -0.901,0 -1.926,-1.506 -1.926,-2.827 0,-0.591 0.282,-0.915 0.722,-0.915 0.516,0 1.053,0.503 1.493,1.328 m -4.491,1.884 h 0.632 l -1.004,-2.744 c -0.089,-0.234 0.035,-0.468 0.275,-0.468 0.571,0 1.493,0.564 1.816,1.335 h -0.179 c -0.254,-0.268 -0.743,-0.626 -1.162,-0.702 l 0.921,2.579 h 0.943 l 0.117,0.392 h -0.915 l 0.351,0.991 h -0.365 l -0.653,-0.991 -0.777,-0.11 z m -3.474,-2.139 c 0,0.846 0.943,1.995 1.472,1.995 0.117,0 0.227,-0.014 0.323,-0.041 l -0.55,-1.465 c -0.316,-0.385 -0.804,-0.853 -1.031,-0.853 -0.131,0 -0.214,0.11 -0.214,0.364 m 2.896,2.827 -0.289,0.021 -0.323,-0.317 h -0.069 c -1.568,0 -2.923,-1.76 -2.923,-3.04 0,-0.357 0.22,-0.564 0.564,-0.564 0.406,0 0.805,0.578 1.252,1.197 l -0.021,-0.22 c -0.055,-0.633 0.138,-0.977 0.468,-0.977 0.385,0 0.736,0.599 1.004,1.19 h -0.179 c -0.186,-0.268 -0.358,-0.426 -0.495,-0.426 -0.145,0 -0.248,0.261 0,0.818 z m -3.343,-0.997 c 0.131,0.447 0.062,0.839 -0.282,0.839 -0.405,0 -0.509,-0.31 -0.921,-1.197 v 0.509 c 0,0.365 -0.117,0.688 -0.447,0.688 -0.385,0 -0.736,-0.598 -1.004,-1.19 h 0.178 c 0.186,0.268 0.358,0.427 0.496,0.427 0.165,0 0.254,-0.255 0,-0.819 l -0.743,-1.651 c -0.138,-0.309 0.007,-0.509 0.309,-0.509 0.186,0 0.269,0.049 0.344,0.248 l 0.729,1.933 c 0.207,0.254 0.392,0.474 0.626,0.722 z m -5.268,-2.765 0.069,0.213 c -0.915,0.172 -1.032,0.172 -0.667,1.169 l 0.371,1.025 h 1.011 c 0.454,0 0.461,-0.185 0.392,-0.681 h 0.262 l 0.605,1.658 h -0.262 c -0.227,-0.392 -0.405,-0.681 -0.901,-0.681 h -0.997 l 0.53,1.451 c 0.165,0.461 0.261,0.557 0.88,0.557 h 0.44 c 0.64,0 0.716,-0.172 0.716,-0.818 h 0.254 l 0.213,1.128 H -28.7 l -0.069,-0.213 c 0.736,-0.152 0.805,-0.221 0.461,-1.17 l -0.826,-2.256 c -0.343,-0.942 -0.488,-1.017 -1.334,-1.169 l -0.062,-0.213 z"
             style="fill:#231f20;fill-opacity:1;fill-rule:nonzero;stroke:none"
             id="path232" /></g><g
           id="g234"
           transform="translate(222.7492,85.9553)"><path
             d="M 0,0 C 0.254,0 0.475,-0.193 0.358,-0.681 L -0.825,-0.956 C -0.619,-0.406 -0.275,0 0,0 M 0.653,-1.905 H 0.42 c -0.296,-0.351 -0.613,-0.626 -0.929,-0.626 -0.323,0 -0.488,0.193 -0.488,0.626 0,0.179 0.02,0.357 0.055,0.523 l 1.905,0.625 c 0.371,0.881 -0.076,1.266 -0.598,1.266 -0.901,0 -1.926,-1.506 -1.926,-2.827 0,-0.591 0.282,-0.915 0.722,-0.915 0.516,0 1.052,0.503 1.492,1.328 M 0.275,0.86 1.616,2.111 V 2.256 H 0.894 L 0.069,0.86 Z m -4.113,-0.881 h 0.633 l -1.004,-2.744 c -0.09,-0.234 0.034,-0.468 0.275,-0.468 0.571,0 1.492,0.564 1.816,1.335 H -2.297 C -2.552,-2.166 -3.04,-2.524 -3.459,-2.6 l 0.921,2.579 h 0.942 l 0.117,0.392 h -0.914 l 0.35,0.991 H -2.407 L -3.061,0.371 -3.838,0.261 Z M -4.69,0.11 c 0.075,0.255 -0.097,0.399 -0.227,0.399 -0.551,0 -1.204,-0.495 -1.465,-1.19 h 0.178 c 0.179,0.255 0.482,0.537 0.764,0.585 l -1.052,-2.738 c -0.097,-0.254 0.096,-0.399 0.227,-0.399 0.522,0 1.134,0.503 1.396,1.19 H -5.048 C -5.227,-2.297 -5.53,-2.579 -5.812,-2.627 Z m 0.192,1.376 c 0.248,0 0.454,0.199 0.454,0.454 0,0.247 -0.206,0.453 -0.454,0.453 -0.254,0 -0.454,-0.206 -0.454,-0.453 0,-0.255 0.2,-0.454 0.454,-0.454 M -8.157,-2.627 -6.238,2.4 -6.3,2.476 -7.503,2.338 V 2.194 L -7.27,2.015 C -7.056,1.85 -7.125,1.692 -7.318,1.183 l -1.499,-3.948 c -0.11,-0.213 0.034,-0.468 0.275,-0.468 0.55,0 1.135,0.496 1.396,1.19 h -0.179 c -0.178,-0.254 -0.55,-0.536 -0.832,-0.584 m -3.645,0.467 c 0,0.846 0.942,1.995 1.472,1.995 0.117,0 0.227,-0.014 0.323,-0.041 l -0.55,-1.465 c -0.316,-0.385 -0.805,-0.853 -1.032,-0.853 -0.13,0 -0.213,0.11 -0.213,0.364 m 2.896,2.827 -0.289,0.021 -0.324,-0.317 h -0.068 c -1.568,0 -2.923,-1.76 -2.923,-3.04 0,-0.357 0.22,-0.564 0.564,-0.564 0.405,0 0.804,0.578 1.251,1.197 l -0.02,-0.22 c -0.055,-0.633 0.137,-0.977 0.467,-0.977 0.386,0 0.736,0.599 1.005,1.19 h -0.179 c -0.186,-0.268 -0.358,-0.426 -0.495,-0.426 -0.145,0 -0.248,0.261 0,0.818 z M -15.908,-3.9 c 0,0.365 0.351,0.592 0.853,0.791 0.165,-0.082 0.413,-0.172 0.743,-0.282 0.522,-0.172 0.722,-0.24 0.722,-0.399 0,-0.337 -0.571,-0.591 -1.348,-0.591 -0.653,0 -0.97,0.137 -0.97,0.481 m 1.424,2.222 c -0.227,0 -0.317,0.192 -0.317,0.412 0,0.613 0.331,1.514 0.846,1.514 0.227,0 0.317,-0.193 0.317,-0.413 0,-0.612 -0.33,-1.513 -0.846,-1.513 m 1.492,-1.885 c 0,0.441 -0.392,0.599 -1.031,0.791 -0.551,0.165 -0.798,0.213 -0.798,0.392 0,0.145 0.117,0.317 0.351,0.44 0.901,0.049 1.485,0.86 1.485,1.541 0,0.145 -0.027,0.268 -0.076,0.378 h 0.764 l 0.117,0.392 h -1.211 c -0.144,0.09 -0.316,0.138 -0.488,0.138 -0.956,0 -1.575,-0.839 -1.575,-1.52 0,-0.516 0.33,-0.839 0.729,-0.915 -0.447,-0.199 -0.695,-0.433 -0.695,-0.708 0,-0.158 0.055,-0.268 0.186,-0.372 -1.032,-0.302 -1.437,-0.646 -1.437,-1.134 0,-0.475 0.626,-0.674 1.368,-0.674 1.259,0 2.311,0.68 2.311,1.251 m -4.807,2.944 c 0.454,0 0.461,-0.186 0.392,-0.681 h 0.261 l 0.605,1.658 h -0.261 c -0.227,-0.392 -0.406,-0.681 -0.901,-0.681 H -18.7 l 0.502,1.382 c 0.165,0.461 0.261,0.55 0.88,0.55 h 0.44 c 0.64,0 0.716,-0.172 0.716,-0.811 h 0.254 l 0.213,1.128 h -3.796 L -19.56,1.713 c 0.736,-0.152 0.805,-0.221 0.461,-1.17 l -0.825,-2.256 c -0.344,-0.942 -0.489,-1.017 -1.335,-1.169 l -0.062,-0.213 h 4.223 l 0.757,1.197 h -0.289 c -0.481,-0.454 -1.087,-0.887 -1.933,-0.887 -1.121,0 -1.018,0.048 -0.646,1.072 l 0.399,1.094 z m 0.55,2.882 1.341,0.921 v 0.145 h -0.811 l -0.743,-1.066 z"
             style="fill:#231f20;fill-opacity:1;fill-rule:nonzero;stroke:none"
             id="path236" /></g><g
           id="g238"
           transform="translate(222.302,94.5525)"><path
             d="M 0,0 C 0.254,0 0.475,-0.193 0.358,-0.681 L -0.825,-0.956 C -0.619,-0.406 -0.275,0 0,0 M 0.653,-1.905 H 0.42 c -0.296,-0.351 -0.613,-0.626 -0.929,-0.626 -0.323,0 -0.488,0.193 -0.488,0.626 0,0.179 0.02,0.357 0.055,0.523 l 1.905,0.625 c 0.371,0.881 -0.076,1.266 -0.598,1.266 -0.901,0 -1.926,-1.506 -1.926,-2.827 0,-0.591 0.282,-0.915 0.722,-0.915 0.516,0 1.052,0.503 1.492,1.328 M 0.275,0.86 1.616,2.111 V 2.256 H 0.894 L 0.069,0.86 Z m -3.941,-0.881 h 0.502 l -1.004,-2.744 c -0.089,-0.234 0.035,-0.468 0.275,-0.468 0.571,0 1.493,0.564 1.816,1.335 H -2.256 C -2.51,-2.166 -2.999,-2.524 -3.418,-2.6 l 0.921,2.579 h 0.943 l 0.117,0.392 h -0.915 l 0.351,0.991 H -2.366 L -3.019,0.371 -3.666,0.261 Z M -4.161,-0.33 c 0.131,0.447 0.062,0.839 -0.282,0.839 -0.406,0 -0.509,-0.31 -0.921,-1.197 v 0.509 c 0,0.365 -0.117,0.688 -0.448,0.688 -0.385,0 -0.735,-0.598 -1.004,-1.19 h 0.179 c 0.186,0.268 0.358,0.427 0.495,0.427 0.165,0 0.255,-0.255 0,-0.819 l -0.742,-1.651 c -0.138,-0.309 0.006,-0.509 0.309,-0.509 0.186,0 0.268,0.049 0.344,0.248 l 0.729,1.933 c 0.206,0.254 0.392,0.474 0.626,0.722 z M -8.384,0 c 0.255,0 0.475,-0.193 0.358,-0.681 L -9.209,-0.956 C -9.003,-0.406 -8.659,0 -8.384,0 m 0.654,-1.905 h -0.234 c -0.296,-0.351 -0.612,-0.626 -0.929,-0.626 -0.323,0 -0.488,0.193 -0.488,0.626 0,0.179 0.021,0.357 0.055,0.523 l 1.905,0.625 c 0.371,0.881 -0.076,1.266 -0.598,1.266 -0.901,0 -1.926,-1.506 -1.926,-2.827 0,-0.591 0.282,-0.915 0.722,-0.915 0.516,0 1.052,0.503 1.493,1.328 m -4.67,-0.77 c -0.186,0 -0.454,0.171 -0.454,0.323 0,0.048 0.082,0.261 0.185,0.529 l 0.31,0.819 c 0.33,0.392 0.832,0.811 1.114,0.811 0.172,0 0.303,-0.11 0.303,-0.364 0,-0.75 -0.702,-2.118 -1.458,-2.118 m 2.166,2.421 c 0,0.557 -0.206,0.763 -0.591,0.763 -0.482,0 -0.936,-0.509 -1.39,-1.128 l 1.149,3.019 -0.062,0.076 -1.204,-0.138 V 2.194 l 0.234,-0.179 c 0.214,-0.165 0.145,-0.337 -0.048,-0.832 l -1.238,-3.191 c -0.089,-0.234 -0.199,-0.509 -0.199,-0.585 0,-0.33 0.447,-0.64 0.853,-0.64 0.935,0 2.496,1.685 2.496,2.979 m -3.741,0.364 c 0.075,0.255 -0.097,0.399 -0.227,0.399 -0.55,0 -1.204,-0.495 -1.465,-1.19 h 0.179 c 0.178,0.255 0.481,0.537 0.763,0.585 l -1.052,-2.738 c -0.096,-0.254 0.096,-0.399 0.227,-0.399 0.522,0 1.135,0.503 1.396,1.19 h -0.179 c -0.179,-0.254 -0.481,-0.536 -0.763,-0.584 z m 0.192,1.376 c 0.248,0 0.454,0.199 0.454,0.453 0,0.248 -0.206,0.454 -0.454,0.454 -0.254,0 -0.454,-0.206 -0.454,-0.454 0,-0.254 0.2,-0.453 0.454,-0.453 m -2.771,0.44 h -2.504 l -0.069,-0.213 c 0.736,-0.152 0.805,-0.221 0.461,-1.17 l -0.811,-2.256 c -0.344,-0.942 -0.489,-1.017 -1.335,-1.169 l -0.062,-0.213 h 3.811 l 0.825,1.472 h -0.289 c -0.467,-0.516 -1.018,-1.162 -1.864,-1.162 -0.639,0 -0.715,0.11 -0.371,1.072 l 0.812,2.256 c 0.337,0.943 0.488,1.018 1.334,1.17 z"
             style="fill:#231f20;fill-opacity:1;fill-rule:nonzero;stroke:none"
             id="path240" /></g><g
           id="g242"
           transform="translate(215.5625,133.863)"><path
             d="M 0,0 C 0.134,0.134 0.269,0.277 0.403,0.421 H 0.4 C 0.65,0.704 0.895,0.974 1.185,1.223 1.273,1.301 1.359,1.371 1.441,1.427 1.465,1.451 1.465,1.498 1.488,1.521 1.37,1.474 1.3,1.38 1.182,1.333 1.158,1.333 1.135,1.357 1.158,1.38 1.242,1.443 1.326,1.506 1.41,1.569 1.405,1.568 1.399,1.568 1.394,1.568 1.37,1.568 1.37,1.592 1.37,1.616 1.064,1.663 0.829,1.451 0.617,1.262 0.57,1.239 0.523,1.286 0.499,1.286 0.146,1.168 -0.113,0.862 -0.466,0.721 V 0.768 C -0.607,0.721 -0.744,0.636 -0.889,0.603 -1.101,0.556 -1.289,0.58 -1.478,0.58 -1.763,0.551 -2.048,0.488 -2.334,0.428 -2.342,0.425 -2.35,0.424 -2.358,0.421 -2.511,0.379 -2.656,0.322 -2.797,0.245 -2.802,0.242 -2.808,0.239 -2.813,0.235 -2.825,0.221 -2.836,0.207 -2.847,0.195 -2.898,0.139 -2.941,0.088 -3.008,0.054 -3.153,-0.02 -3.271,-0.148 -3.399,-0.252 -3.408,-0.26 -3.422,-0.263 -3.436,-0.264 c -0.127,-0.121 -0.251,-0.244 -0.38,-0.363 -0.009,-0.008 -0.045,-0.013 -0.071,-0.009 0,0.001 10e-4,0.002 0.002,0.003 0.004,0.007 0.009,0.015 0.013,0.022 0.02,0.033 0.04,0.066 0.061,0.099 0.022,0.037 0.046,0.074 0.069,0.11 0.032,0.048 0.065,0.096 0.101,0.143 0.009,0.012 0.006,0.023 -10e-4,0.031 -0.008,0.008 -0.02,0.012 -0.033,0.012 0.118,0.114 0.257,0.211 0.395,0.295 0,0.001 0,0.003 0,0.004 -0.016,-0.005 -0.038,0.007 -0.026,0.024 0.014,0.021 0.026,0.043 0.04,0.064 0.003,0.007 0.005,0.014 0.008,0.021 C -3.264,0.198 -3.27,0.204 -3.276,0.21 -3.314,0.186 -3.355,0.162 -3.387,0.133 c -0.056,-0.051 -0.1,-0.154 -0.186,-0.153 -0.005,0 -0.022,0.001 -0.035,0.005 -0.01,10e-4 -0.019,0.004 -0.025,0.008 10e-4,0.002 0.002,0.004 0.003,0.006 10e-4,0.002 0.002,0.004 0.004,0.006 10e-4,0.002 0.002,0.004 0.003,0.006 0.004,0.007 0.007,0.014 0.011,0.02 0.004,0.007 0.008,0.014 0.011,0.021 0.003,0.005 0.006,0.011 0.009,0.016 0.006,0.01 0.011,0.02 0.017,0.03 0.004,0.007 0.008,0.014 0.012,0.021 0.01,0.017 0.021,0.035 0.031,0.052 0.005,0.008 0.009,0.017 0.014,0.025 0.009,0.014 0.017,0.029 0.025,0.043 0.012,0.019 0,0.035 -0.017,0.042 0.043,0.056 0.097,0.104 0.161,0.14 h -0.007 c 0.09,0.046 0.18,0.101 0.27,0.151 0.013,0.012 0.026,0.023 0.039,0.034 C -3.181,0.561 -3.302,0.5 -3.421,0.421 c 0,0 -0.031,-0.012 -0.04,-0.021 0,0 -0.027,-0.01 -0.059,0.021 -0.003,0.005 -0.005,0.01 -0.005,0.018 0.023,0.047 0.094,0.07 0.141,0.117 0.023,0 0.047,0 0.047,-0.023 0.753,0.588 1.789,0.447 2.66,0.753 0.07,0.047 0.141,0.094 0.211,0.141 0.118,0.047 0.212,0.165 0.353,0.236 0.189,0.141 0.33,0.306 0.401,0.541 0,0.024 -0.024,0.047 -0.024,0.047 C -0.042,1.922 -0.395,1.663 -0.772,1.474 -1.266,1.215 -1.807,1.262 -2.325,1.192 c 0.024,0.047 0.071,0.047 0.118,0.047 0,0.071 0.047,0.094 0.094,0.141 h 0.07 c 0.024,0 0.024,0.047 0.047,0.047 0.048,0 0.118,0.024 0.095,0.024 -0.071,0.094 -0.212,-0.071 -0.33,0 0.047,0.047 0.024,0.117 0.071,0.141 h 0.094 c 0,0.047 0.047,0.094 0.047,0.094 0.353,0.212 0.683,0.377 1.012,0.565 -0.071,0 -0.118,-0.071 -0.188,-0.023 0.047,0 0,0.07 0.047,0.07 0.259,0.071 0.471,0.212 0.73,0.306 -0.095,0 -0.165,-0.07 -0.259,0 0.047,0.024 0.07,0.071 0.141,0.071 v 0.07 c 0,0.024 0.023,0.024 0.047,0.024 -0.024,0 -0.047,0.023 -0.047,0.023 0.023,0.047 0.094,0.024 0.141,0.071 -0.023,0 -0.071,0 -0.071,0.024 0.071,0.094 0.189,0.117 0.306,0.141 -0.023,0.047 -0.094,0 -0.094,0.047 0,0.023 0.024,0.023 0.047,0.023 h -0.047 c -0.047,0.024 -0.023,0.071 -0.023,0.095 0.141,0.164 0.141,0.376 0.212,0.564 -0.024,0 -0.048,0 -0.048,0.024 C -0.348,3.522 -0.725,3.428 -1.078,3.334 h -0.117 c -0.118,-0.047 -0.283,-0.047 -0.4,0.023 -0.095,0.047 -0.142,0.118 -0.236,0.189 -0.188,0.117 -0.376,0.211 -0.588,0.282 -0.589,0.188 -1.201,0.283 -1.813,0.259 0.259,0.141 0.545,0.153 0.824,0.235 0.4,0.118 0.777,0.259 1.201,0.236 -0.071,0.023 -0.165,0 -0.236,0 C -2.772,4.581 -3.102,4.487 -3.455,4.417 -3.69,4.369 -3.902,4.275 -4.137,4.228 -4.279,4.181 -4.349,4.04 -4.514,4.063 v 0.071 c 0.235,0.283 0.518,0.565 0.894,0.589 0.424,0.07 0.824,0 1.248,-0.048 0.306,-0.023 0.588,-0.094 0.894,-0.164 0.118,0 0.142,-0.189 0.236,-0.212 0.141,-0.047 0.282,0 0.423,-0.094 0,0.047 -0.023,0.094 0,0.141 0.094,0.094 0.212,-0.024 0.306,0.023 0.189,0.118 -0.164,0.33 -0.259,0.495 0,0.023 0.024,0.047 0.024,0.047 0.188,-0.165 0.33,-0.353 0.565,-0.471 0.118,-0.047 0.4,-0.118 0.353,0.024 -0.118,0.259 -0.353,0.47 -0.541,0.706 v 0.094 c -0.047,0 -0.047,0.023 -0.071,0.047 v 0.094 c -0.094,0.047 -0.071,0.141 -0.118,0.212 -0.07,0.118 -0.023,0.282 -0.07,0.424 -0.047,0.141 -0.071,0.259 -0.095,0.4 -0.07,0.4 -0.164,0.753 -0.211,1.13 -0.047,0.447 0.259,0.8 0.47,1.2 0.165,0.282 0.353,0.565 0.659,0.753 0.071,0.283 0.259,0.518 0.448,0.753 0.188,0.23 0.5,0.37 0.726,0.471 0.329,0.147 0.626,0.239 0.626,0.239 H -14.161 V -1.469 h 11.44 c 0.448,0.323 0.895,0.476 1.521,0.784 0.295,0.146 0.971,0.456 1.2,0.685 m -3.62,1.686 c -0.047,0 -0.141,-0.023 -0.117,0.024 0.023,0.117 0.188,0.117 0.282,0.164 0.047,0.024 0.118,0.071 0.165,0.048 0.047,-0.071 0.118,-0.048 0.165,-0.095 -0.142,-0.141 -0.33,-0.07 -0.495,-0.141 m -3.601,0.518 c 0,0 -0.023,0.024 -0.023,0.047 0.306,0.4 0.541,0.777 0.753,1.2 0.306,0.165 0.56,0.405 0.8,0.66 0.4,0.423 0.824,0.8 1.318,1.035 0.188,0.071 0.424,0.047 0.612,-0.023 -0.07,-0.094 -0.188,-0.071 -0.282,-0.142 -0.024,0 -0.047,0 -0.071,0.024 C -4.09,5.029 -4.09,5.052 -4.09,5.076 -4.326,4.817 -4.655,4.699 -4.844,4.393 -4.985,4.158 -5.079,3.852 -5.385,3.781 -5.479,3.757 -5.361,3.852 -5.409,3.828 -6.138,3.381 -6.656,2.839 -7.221,2.204 m 1.954,1.553 C -5.291,3.71 -5.317,3.705 -5.338,3.663 -5.361,3.616 -5.385,3.593 -5.432,3.569 c -0.024,0 -0.047,0 -0.047,0.024 0.023,0.094 0.094,0.188 0.188,0.212 0.024,0 0.024,-0.024 0.024,-0.048 M -4.174,0.231 C -4.185,0.205 -4.209,0.183 -4.232,0.162 -4.203,0.156 -4.182,0.143 -4.201,0.126 -4.256,0.076 -4.308,0.025 -4.379,0.001 -4.385,0 -4.399,-0.003 -4.416,-0.004 c -0.029,-0.027 -0.057,-0.055 -0.087,-0.082 -0.028,-0.025 -0.158,-0.007 -0.118,0.028 0.059,0.053 0.115,0.111 0.174,0.165 0.033,0.03 0.068,0.059 0.098,0.093 0.016,0.019 0.029,0.038 0.05,0.052 0.019,0.014 0.144,0.025 0.125,-0.021 M -4.596,0.425 C -4.598,0.424 -4.6,0.423 -4.602,0.421 -4.69,0.359 -4.778,0.296 -4.871,0.242 -4.971,0.184 -5.077,0.139 -5.181,0.09 -5.182,0.092 -5.183,0.094 -5.184,0.095 -5.192,0.106 -5.208,0.113 -5.224,0.105 -5.313,0.057 -5.389,-0.007 -5.461,-0.076 -5.472,-0.086 -5.483,-0.097 -5.493,-0.107 -5.494,-0.108 -5.495,-0.108 -5.495,-0.109 -5.496,-0.11 -5.497,-0.11 -5.497,-0.111 -5.508,-0.122 -5.52,-0.133 -5.531,-0.144 c -0.001,-0.002 -0.002,-0.003 -0.004,-0.004 0,-0.001 0,-0.002 -10e-4,-0.002 -0.017,-0.017 -0.033,-0.034 -0.051,-0.055 -0.012,-0.014 -0.016,-0.023 -0.032,-0.033 -0.014,-0.01 -0.055,-0.01 -0.051,0.017 0,0.002 0,0.003 0,0.005 -0.014,-0.007 -0.028,-0.015 -0.042,-0.021 -0.013,-0.007 -0.024,-0.014 -0.036,-0.021 -0.005,0.002 -0.011,0.003 -0.017,0.003 -0.006,-0.001 -0.011,-0.002 -0.017,-0.006 -0.028,-0.022 -0.057,-0.046 -0.085,-0.072 -0.049,-0.044 -0.095,-0.093 -0.136,-0.145 -10e-4,-0.001 -10e-4,-0.001 -0.002,-0.002 -0.002,-0.002 -0.003,-0.004 -0.005,-0.007 -0.002,-0.003 -0.005,-0.006 -0.007,-0.009 -0.002,-0.003 -0.005,-0.006 -0.007,-0.009 -0.001,-0.001 -0.002,-0.002 -0.003,-0.003 -0.005,-0.008 -0.01,-0.016 -0.016,-0.024 0,0 0,-0.001 -10e-4,-0.001 -0.004,-0.005 -0.01,-0.008 -0.019,-0.009 -0.003,0.004 -0.006,0.009 -0.009,0.014 -0.003,0.003 -0.005,0.007 -0.007,0.011 -0.007,0.012 -0.014,0.025 -0.02,0.038 0,0 0,0.001 -10e-4,0.001 -0.002,0.004 -0.003,0.008 -0.005,0.012 0.025,0.027 0.05,0.056 0.074,0.085 10e-4,0.002 0.003,0.003 0.004,0.005 0.009,0.01 0.017,0.02 0.025,0.031 0.013,0.016 0.026,0.033 0.039,0.05 0.005,0.006 0.01,0.012 0.015,0.019 0.026,0.033 0.05,0.066 0.073,0.099 0.001,0.001 0.001,0.002 0.002,0.002 0.003,0.005 0.007,0.01 0.01,0.015 0.011,0.017 0.022,0.034 0.032,0.051 0.01,0.015 0.018,0.031 0.026,0.047 10e-4,0.001 10e-4,0.002 0.002,0.003 0.001,0.002 0.002,0.004 0.003,0.005 10e-4,0.003 0.002,0.006 0.003,0.009 0.009,0.018 0.016,0.036 0.023,0.055 0,0.002 0.001,0.004 0.002,0.006 0.002,0.005 0.003,0.01 0.005,0.015 0.003,0.009 0.005,0.018 0.007,0.026 h 10e-4 c 0,0.002 0,0.004 0.001,0.006 0.003,0.012 0.006,0.023 0.008,0.035 0.001,0.006 0,0.011 -0.003,0.016 C -5.728,0.158 -5.696,0.2 -5.66,0.241 -5.663,0.238 -5.667,0.237 -5.67,0.234 -5.704,0.213 -5.726,0.182 -5.758,0.159 -5.783,0.14 -5.831,0.172 -5.8,0.194 c 0.02,0.016 0.036,0.033 0.053,0.049 10e-4,0.001 0.002,0.002 0.003,0.004 0.039,0.038 0.076,0.087 0.12,0.119 0.027,0.02 0.05,0.036 0.072,0.055 0.004,0.003 0.007,0.007 0.011,0.01 0.016,0.021 0.034,0.041 0.052,0.059 10e-4,0.001 0.002,0.002 0.003,0.002 0.225,0.218 0.604,0.208 0.901,0.347 0.118,0.047 0.259,-0.024 0.377,0 0.071,0 0.141,0 0.212,-0.047 -0.212,-0.116 -0.407,-0.246 -0.6,-0.367 m 0.482,1.638 c -0.023,0.023 0.071,0 0.094,0.047 h -0.188 c -0.024,0 -0.024,0.023 -0.024,0.047 C -4.349,2.133 -4.491,2.086 -4.608,2.063 -4.773,2.016 -4.914,1.898 -5.102,1.851 -5.361,1.757 -5.573,1.545 -5.856,1.451 c -0.023,0 -0.023,0.023 -0.023,0.047 0.023,0.07 0.117,0.094 0.165,0.165 0,0.023 0,0.047 -0.024,0.047 0.188,0.259 0.447,0.4 0.683,0.612 v 0.07 c 0.07,0.094 0.188,0.142 0.235,0.259 0.023,0.071 0.118,0.165 0.235,0.212 -0.023,0.024 -0.07,0.024 -0.07,0.071 -0.094,0 -0.189,-0.047 -0.283,0.023 0.044,0.044 0.095,0.068 0.148,0.084 -0.02,0.004 -0.039,0.014 -0.054,0.034 -0.023,0.047 0.046,0.1 0.118,0.118 0.094,0.023 0.212,0.023 0.283,0.094 -0.165,0.023 -0.354,-0.047 -0.518,0.047 0.117,0.306 0.306,0.565 0.588,0.706 0.024,0 0.071,0 0.071,-0.024 0,-0.117 -0.071,-0.211 -0.189,-0.235 0.189,-0.047 0.377,-0.047 0.565,-0.141 -0.023,-0.047 -0.07,-0.024 -0.094,-0.024 0.118,-0.07 0.259,-0.023 0.377,-0.117 -0.071,-0.071 -0.141,0 -0.212,0 0.73,-0.212 1.506,-0.377 2.118,-0.848 -0.517,-0.259 -1.059,-0.376 -1.624,-0.494 -0.07,0 -0.117,0 -0.188,0.023 0,-0.023 0,-0.07 -0.024,-0.07 -0.094,0 -0.164,0 -0.235,-0.047 -0.094,-0.047 -0.235,-0.071 -0.306,0"
             style="fill:#283a7f;fill-opacity:1;fill-rule:nonzero;stroke:none"
             id="path244" /></g><g
           id="g246"
           transform="translate(235.6553,144.85)"><path
             d="m 0,0 h -13.399 c 0,0 0.025,-0.004 0.127,-0.059 0.109,-0.058 0.25,-0.134 0.338,-0.18 0.173,-0.09 0.341,-0.203 0.449,-0.376 0.047,-0.071 0.118,-0.212 0.071,-0.306 -0.047,-0.118 -0.071,-0.306 -0.189,-0.353 -0.141,-0.071 -0.329,-0.071 -0.494,-0.048 -0.094,0 -0.188,0.024 -0.282,0.048 0.353,-0.142 0.682,-0.306 0.918,-0.636 0.023,-0.047 0.117,-0.071 0.211,-0.071 0.024,0 0.024,-0.047 0.024,-0.07 -0.047,-0.047 -0.094,-0.071 -0.071,-0.141 h 0.071 c 0.118,0.047 0.094,0.282 0.259,0.211 0.118,-0.07 0.165,-0.235 0.094,-0.353 -0.094,-0.094 -0.188,-0.164 -0.282,-0.235 -0.024,-0.047 -0.024,-0.118 0,-0.165 0.07,-0.094 0.094,-0.188 0.117,-0.282 0.071,-0.165 0.094,-0.353 0.165,-0.518 0.094,-0.353 0.188,-0.706 0.165,-1.059 0,-0.189 -0.094,-0.353 -0.024,-0.542 0.047,-0.188 0.165,-0.329 0.259,-0.494 0.094,-0.141 0.188,-0.235 0.259,-0.377 0.141,-0.235 0.4,-0.47 0.282,-0.753 -0.07,-0.165 -0.329,-0.141 -0.494,-0.235 -0.141,-0.118 -0.023,-0.306 0.047,-0.424 0.118,-0.212 -0.141,-0.353 -0.306,-0.423 0.047,-0.071 0.141,-0.048 0.165,-0.095 0.024,-0.117 0.141,-0.188 0.071,-0.306 -0.095,-0.141 -0.377,-0.211 -0.236,-0.423 0.094,-0.165 0.033,-0.348 -0.023,-0.518 -0.071,-0.212 -0.259,-0.306 -0.424,-0.353 -0.141,-0.047 -0.306,-0.047 -0.447,-0.024 -0.047,0.024 -0.094,0.047 -0.141,0.047 -0.4,0.047 -0.801,0.165 -1.201,0.165 -0.117,-0.023 -0.235,-0.047 -0.329,-0.094 -0.107,-0.078 -0.201,-0.163 -0.285,-0.252 -10e-4,-10e-4 -0.002,-0.002 -0.003,-0.003 -0.018,-0.019 -0.035,-0.038 -0.051,-0.057 -0.011,-0.012 -0.021,-0.024 -0.031,-0.036 -0.006,-0.008 -0.013,-0.016 -0.02,-0.024 -0.068,-0.087 -0.13,-0.177 -0.185,-0.272 -0.004,-0.006 -0.007,-0.012 -0.01,-0.018 -0.007,-0.011 -0.013,-0.022 -0.019,-0.033 -0.077,-0.143 -0.135,-0.289 -0.178,-0.432 -0.16,-0.539 -0.09,-1.001 0.022,-1.113 0.032,-0.032 0.777,-0.262 1.297,-0.493 0.243,-0.108 0.414,-0.192 0.555,-0.281 H 0 Z"
             style="fill:#ed1c24;fill-opacity:1;fill-rule:nonzero;stroke:none"
             id="path248" /></g><g
           id="g250"
           transform="translate(223.0532,140.306)"><path
             d="m 0,0 c 0.094,-0.024 0.235,-0.024 0.235,-0.071 -0.047,-0.188 -0.329,-0.235 -0.47,-0.423 h -0.071 c -0.071,-0.047 -0.047,-0.165 -0.118,-0.165 -0.07,0.023 -0.141,0 -0.212,-0.024 0.095,-0.094 0.212,-0.164 0.353,-0.141 0.024,0 0.071,-0.047 0.071,-0.094 0,0 0.024,0 0.047,0.024 0.024,0 0.047,0 0.047,-0.024 v -0.094 c -0.07,-0.094 -0.188,-0.047 -0.282,-0.071 0.188,-0.047 0.376,-0.047 0.541,0 0.141,0.047 0,0.283 0.094,0.4 -0.047,0 0,0.071 -0.047,0.071 0.047,0.047 0.094,0.118 0.141,0.141 0.048,0 0.118,0.024 0.142,0.071 0,0.047 -0.094,0.07 -0.071,0.118 0.141,0.094 0.259,0.235 0.212,0.376 -0.024,0.071 -0.212,0.071 -0.33,0.118 -0.117,0.047 -0.259,0 -0.4,-0.024 -0.117,0 -0.235,-0.07 -0.353,-0.094 -0.165,-0.047 -0.306,-0.141 -0.447,-0.235 0.165,0.07 0.33,0.094 0.518,0.141 0.141,0 0.261,0.035 0.4,0"
             style="fill:#918f90;fill-opacity:1;fill-rule:nonzero;stroke:none"
             id="path252" /></g></g></g></g></svg>
